<svg xmlns="http://www.w3.org/2000/svg" viewBox="0 0 32 32">
  <rect width="32" height="32" rx="8" fill="#c6e7e1"/>
  <rect x="2" y="2" width="28" height="28" rx="6" fill="#fff9eb"/>
  <path fill="#2d5f54" d="M10 8.5c0-1.2 1-2 2.2-2h3.6c3.8 0 6.2 2.4 6.2 5.8 0 2.6-1.2 4.4-3.2 5.2v.1c2.8.6 4.6 2.8 4.6 5.9 0 3.8-2.6 6.5-6.8 6.5h-4.6c-1.2 0-2.2-1-2.2-2.2V8.5zm4.4 3.6v4.1h1.8c1.5 0 2.4-.9 2.4-2.2 0-1.3-.9-1.9-2.4-1.9h-1.8zm0 7.3v4.5h2.2c1.8 0 2.9-1 2.9-2.5 0-1.5-1.1-2-2.9-2h-2.2z"/>
  <ellipse cx="9.5" cy="9" rx="1.4" ry="2.2" fill="#8bb88e" transform="rotate(-35 9.5 9)"/>
  <ellipse cx="7.5" cy="11.5" rx="1.1" ry="1.8" fill="#8bb88e" transform="rotate(-35 7.5 11.5)"/>
  <path fill="#f6b297" d="M22.5 21.5l1.1 1.1-1.1 1.1-1.1-1.1 1.1-1.1zm0-2.2l3.3 3.3-1.1 1.1-3.3-3.3 1.1-1.1z"/>
</svg>